<?xml version="1.0" encoding="UTF-8" standalone="no"?>
<!-- Created with Inkscape (http://www.inkscape.org/) -->

<svg
   xmlns:dc="http://purl.org/dc/elements/1.1/"
   xmlns:cc="http://creativecommons.org/ns#"
   xmlns:rdf="http://www.w3.org/1999/02/22-rdf-syntax-ns#"
   xmlns:svg="http://www.w3.org/2000/svg"
   xmlns="http://www.w3.org/2000/svg"
   xmlns:sodipodi="http://sodipodi.sourceforge.net/DTD/sodipodi-0.dtd"
   xmlns:inkscape="http://www.inkscape.org/namespaces/inkscape"
   width="80mm"
   height="48mm"
   viewBox="0 0 80 48"
   version="1.1"
   id="svg5781"
   inkscape:version="0.92.5 (2060ec1f9f, 2020-04-08)"
   sodipodi:docname="castleConstruction-logo-black.svg">
  <defs
     id="defs5775" />
  <sodipodi:namedview
     id="base"
     pagecolor="#ffffff"
     bordercolor="#666666"
     borderopacity="1.0"
     inkscape:pageopacity="0.0"
     inkscape:pageshadow="2"
     inkscape:zoom="3.959798"
     inkscape:cx="147.60109"
     inkscape:cy="157.95105"
     inkscape:document-units="mm"
     inkscape:current-layer="layer1"
     showgrid="false"
     inkscape:window-width="3000"
     inkscape:window-height="1872"
     inkscape:window-x="0"
     inkscape:window-y="54"
     inkscape:window-maximized="1" />
  <metadata
     id="metadata5778">
    <rdf:RDF>
      <cc:Work
         rdf:about="">
        <dc:format>image/svg+xml</dc:format>
        <dc:type
           rdf:resource="http://purl.org/dc/dcmitype/StillImage" />
        <dc:title></dc:title>
      </cc:Work>
    </rdf:RDF>
  </metadata>
  <g
     inkscape:label="Layer 1"
     inkscape:groupmode="layer"
     id="layer1"
     transform="translate(-67.321787,-123.80478)">
    <g
       aria-label="Castle  "
       style="font-style:normal;font-variant:normal;font-weight:normal;font-stretch:normal;font-size:12.12515831px;line-height:1.25;font-family:Ubuntu;-inkscape-font-specification:'Ubuntu, Normal';font-variant-ligatures:normal;font-variant-caps:normal;font-variant-numeric:normal;font-feature-settings:normal;text-align:start;letter-spacing:0px;word-spacing:0px;writing-mode:lr-tb;text-anchor:start;fill:#000000;fill-opacity:0.99822807;stroke:none;stroke-width:0.31964448"
       id="text1060-5-0"
       transform="matrix(1.108856,0,0,1.108856,-123.83472,-26.32958)">
      <path
         d="m 177.6863,163.97997 q -0.88513,0 -1.61264,-0.291 -0.72751,-0.291 -1.24889,-0.84876 -0.52139,-0.55776 -0.81239,-1.37014 -0.27888,-0.82452 -0.27888,-1.8794 0,-1.05489 0.31526,-1.86728 0.32738,-0.82451 0.87301,-1.38227 0.54563,-0.55775 1.27314,-0.84876 0.72751,-0.291 1.55202,-0.291 0.52138,0 0.93364,0.0728 0.42438,0.0727 0.72751,0.16975 0.31525,0.097 0.50925,0.194 0.19401,0.097 0.26676,0.14551 l -0.33951,0.97001 q -0.10912,-0.0727 -0.31525,-0.15763 -0.20613,-0.0849 -0.47288,-0.16975 -0.25463,-0.0849 -0.56989,-0.13338 -0.30312,-0.0606 -0.61838,-0.0606 -0.66688,0 -1.20039,0.23037 -0.53351,0.23038 -0.90939,0.66689 -0.37588,0.4365 -0.582,1.06701 -0.19401,0.61839 -0.19401,1.3944 0,0.75176 0.16976,1.37014 0.18187,0.61838 0.5335,1.06701 0.35163,0.43651 0.87301,0.67901 0.53351,0.2425 1.23677,0.2425 0.81239,0 1.34589,-0.16975 0.53351,-0.16975 0.80026,-0.30313 l 0.30313,0.97002 q -0.0849,0.0606 -0.30313,0.15762 -0.21825,0.0849 -0.54563,0.16976 -0.32738,0.0849 -0.76388,0.1455 -0.43651,0.0606 -0.94577,0.0606 z"
         style="font-style:normal;font-variant:normal;font-weight:normal;font-stretch:normal;font-size:12.12515831px;font-family:Ubuntu;-inkscape-font-specification:'Ubuntu, Normal';font-variant-ligatures:normal;font-variant-caps:normal;font-variant-numeric:normal;font-feature-settings:normal;text-align:start;writing-mode:lr-tb;text-anchor:start;fill:#000000;fill-opacity:0.99822807;stroke-width:0.31964448"
         id="path879-9"
         inkscape:connector-curvature="0" />
      <path
         d="m 183.65187,162.98571 q 0.40013,0 0.70326,-0.0121 0.31525,-0.0242 0.52138,-0.0727 v -1.8794 q -0.12125,-0.0606 -0.40013,-0.097 -0.26675,-0.0485 -0.65476,-0.0485 -0.25463,0 -0.54563,0.0364 -0.27888,0.0364 -0.52138,0.15763 -0.23038,0.10912 -0.38801,0.31525 -0.15763,0.194 -0.15763,0.52138 0,0.60626 0.38801,0.84876 0.38801,0.23038 1.05489,0.23038 z m -0.097,-5.65032 q 0.67901,0 1.13976,0.18187 0.47288,0.16976 0.75176,0.49714 0.29101,0.31525 0.41226,0.76388 0.12125,0.43651 0.12125,0.97001 v 3.94068 q -0.1455,0.0242 -0.41226,0.0727 -0.25462,0.0364 -0.582,0.0728 -0.32738,0.0364 -0.71539,0.0606 -0.37588,0.0364 -0.75176,0.0364 -0.5335,0 -0.98214,-0.10912 -0.44863,-0.10913 -0.77601,-0.33951 -0.32738,-0.2425 -0.50925,-0.63051 -0.18188,-0.388 -0.18188,-0.93363 0,-0.52139 0.20613,-0.89727 0.21825,-0.37588 0.58201,-0.60625 0.36375,-0.23038 0.84876,-0.33951 0.485,-0.10912 1.01851,-0.10912 0.16975,0 0.35163,0.0242 0.18188,0.0121 0.3395,0.0485 0.16976,0.0242 0.29101,0.0485 0.12125,0.0243 0.16975,0.0364 v -0.31525 q 0,-0.27888 -0.0606,-0.54563 -0.0606,-0.27888 -0.21825,-0.48501 -0.15763,-0.21825 -0.4365,-0.3395 -0.26676,-0.13338 -0.70326,-0.13338 -0.55776,0 -0.98214,0.0849 -0.41226,0.0728 -0.61838,0.15762 l -0.13338,-0.93364 q 0.21825,-0.097 0.72751,-0.18187 0.50925,-0.097 1.10339,-0.097 z"
         style="font-style:normal;font-variant:normal;font-weight:normal;font-stretch:normal;font-size:12.12515831px;font-family:Ubuntu;-inkscape-font-specification:'Ubuntu, Normal';font-variant-ligatures:normal;font-variant-caps:normal;font-variant-numeric:normal;font-feature-settings:normal;text-align:start;writing-mode:lr-tb;text-anchor:start;fill:#000000;fill-opacity:0.99822807;stroke-width:0.31964448"
         id="path881-2"
         inkscape:connector-curvature="0" />
      <path
         d="m 189.31431,162.98571 q 0.69113,0 1.01851,-0.18188 0.33951,-0.18187 0.33951,-0.582 0,-0.41226 -0.32738,-0.65476 -0.32738,-0.24251 -1.07914,-0.54564 -0.36376,-0.1455 -0.70326,-0.291 -0.32738,-0.15763 -0.56988,-0.36375 -0.24251,-0.20613 -0.38801,-0.49714 -0.1455,-0.291 -0.1455,-0.71538 0,-0.83664 0.61838,-1.32164 0.61839,-0.49713 1.6854,-0.49713 0.26675,0 0.53351,0.0364 0.26675,0.0242 0.49713,0.0728 0.23038,0.0364 0.40013,0.0849 0.18188,0.0485 0.27888,0.0849 l -0.20613,0.97002 q -0.18188,-0.097 -0.56988,-0.194 -0.38801,-0.10913 -0.93364,-0.10913 -0.47288,0 -0.82451,0.194 -0.35163,0.18188 -0.35163,0.58201 0,0.20613 0.0727,0.36375 0.0849,0.15763 0.2425,0.29101 0.16976,0.12125 0.41226,0.23038 0.2425,0.10912 0.58201,0.23037 0.44863,0.16976 0.80026,0.33951 0.35163,0.15762 0.59413,0.37588 0.25463,0.21825 0.38801,0.5335 0.13337,0.30313 0.13337,0.75176 0,0.87302 -0.65476,1.32165 -0.64263,0.44863 -1.84302,0.44863 -0.83664,0 -1.30952,-0.1455 -0.47288,-0.13338 -0.64263,-0.20613 l 0.20613,-0.97001 q 0.194,0.0727 0.61838,0.21825 0.42438,0.1455 1.12764,0.1455 z"
         style="font-style:normal;font-variant:normal;font-weight:normal;font-stretch:normal;font-size:12.12515831px;font-family:Ubuntu;-inkscape-font-specification:'Ubuntu, Normal';font-variant-ligatures:normal;font-variant-caps:normal;font-variant-numeric:normal;font-feature-settings:normal;text-align:start;writing-mode:lr-tb;text-anchor:start;fill:#000000;fill-opacity:0.99822807;stroke-width:0.31964448"
         id="path883-5"
         inkscape:connector-curvature="0" />
      <path
         d="m 194.30987,157.49301 h 2.38865 v 0.94577 h -2.38865 v 2.91003 q 0,0.47288 0.0728,0.78814 0.0727,0.30313 0.21825,0.48501 0.1455,0.16975 0.36375,0.2425 0.21826,0.0727 0.50926,0.0727 0.50926,0 0.81239,-0.10913 0.31525,-0.12125 0.4365,-0.16975 l 0.21825,0.93364 q -0.16975,0.0849 -0.59413,0.20613 -0.42438,0.13337 -0.97001,0.13337 -0.64263,0 -1.06701,-0.15762 -0.41226,-0.16976 -0.66689,-0.49714 -0.25463,-0.32738 -0.36375,-0.80026 -0.097,-0.485 -0.097,-1.11551 v -5.62607 l 1.12764,-0.19401 z"
         style="font-style:normal;font-variant:normal;font-weight:normal;font-stretch:normal;font-size:12.12515831px;font-family:Ubuntu;-inkscape-font-specification:'Ubuntu, Normal';font-variant-ligatures:normal;font-variant-caps:normal;font-variant-numeric:normal;font-feature-settings:normal;text-align:start;writing-mode:lr-tb;text-anchor:start;fill:#000000;fill-opacity:0.99822807;stroke-width:0.31964448"
         id="path885-4"
         inkscape:connector-curvature="0" />
      <path
         d="m 200.0208,163.91935 q -1.04277,-0.0242 -1.47927,-0.44863 -0.43651,-0.42438 -0.43651,-1.32165 v -7.56609 l 1.12764,-0.19401 v 7.57823 q 0,0.27888 0.0485,0.46075 0.0485,0.18188 0.15763,0.29101 0.10913,0.10912 0.291,0.16975 0.18188,0.0485 0.44863,0.0849 z"
         style="font-style:normal;font-variant:normal;font-weight:normal;font-stretch:normal;font-size:12.12515831px;font-family:Ubuntu;-inkscape-font-specification:'Ubuntu, Normal';font-variant-ligatures:normal;font-variant-caps:normal;font-variant-numeric:normal;font-feature-settings:normal;text-align:start;writing-mode:lr-tb;text-anchor:start;fill:#000000;fill-opacity:0.99822807;stroke-width:0.31964448"
         id="path887-0"
         inkscape:connector-curvature="0" />
      <path
         d="m 201.08779,160.65768 q 0,-0.83664 0.24251,-1.45502 0.2425,-0.63051 0.64263,-1.04276 0.40013,-0.41226 0.92151,-0.61839 0.52139,-0.20612 1.06702,-0.20612 1.27314,0 1.95215,0.80026 0.67901,0.78813 0.67901,2.4129 0,0.0727 0,0.19401 0,0.10912 -0.0121,0.20612 h -4.31655 q 0.0728,0.98214 0.56988,1.4914 0.49713,0.50925 1.55202,0.50925 0.59413,0 0.99426,-0.097 0.41226,-0.10912 0.61838,-0.20612 l 0.15763,0.94576 q -0.20613,0.10912 -0.72751,0.23038 -0.50926,0.12125 -1.16401,0.12125 -0.82451,0 -1.43077,-0.24251 -0.59414,-0.25462 -0.98214,-0.69113 -0.38801,-0.43651 -0.58201,-1.03064 -0.18188,-0.60626 -0.18188,-1.32164 z m 4.32869,-0.61838 q 0.0121,-0.76389 -0.38801,-1.24889 -0.388,-0.49714 -1.07914,-0.49714 -0.388,0 -0.69113,0.15763 -0.29101,0.1455 -0.49713,0.38801 -0.20613,0.2425 -0.32738,0.55775 -0.10913,0.31526 -0.1455,0.64264 z"
         style="font-style:normal;font-variant:normal;font-weight:normal;font-stretch:normal;font-size:12.12515831px;font-family:Ubuntu;-inkscape-font-specification:'Ubuntu, Normal';font-variant-ligatures:normal;font-variant-caps:normal;font-variant-numeric:normal;font-feature-settings:normal;text-align:start;writing-mode:lr-tb;text-anchor:start;fill:#000000;fill-opacity:0.99822807;stroke-width:0.31964448"
         id="path889-5"
         inkscape:connector-curvature="0" />
    </g>
    <g
       aria-label="Construction"
       style="font-style:normal;font-variant:normal;font-weight:normal;font-stretch:normal;font-size:12.12461948px;line-height:1.25;font-family:Ubuntu;-inkscape-font-specification:'Ubuntu, Normal';font-variant-ligatures:normal;font-variant-caps:normal;font-variant-numeric:normal;font-feature-settings:normal;text-align:start;letter-spacing:0px;word-spacing:0px;writing-mode:lr-tb;text-anchor:start;fill:#000000;fill-opacity:0.99822807;stroke:none;stroke-width:0.25454661"
       id="text834-9"
       transform="matrix(1.108856,0,0,1.108856,-123.83472,-24.21291)">
      <path
         d="m 177.6857,175.84712 q -0.8851,0 -1.61257,-0.29099 -0.72748,-0.29099 -1.24884,-0.84872 -0.52136,-0.55773 -0.81235,-1.37008 -0.27887,-0.82448 -0.27887,-1.87932 0,-1.05484 0.31524,-1.86719 0.32737,-0.82448 0.87298,-1.38221 0.5456,-0.55773 1.27308,-0.84872 0.72748,-0.29099 1.55195,-0.29099 0.52136,0 0.9336,0.0727 0.42436,0.0727 0.72748,0.16974 0.31524,0.097 0.50923,0.19399 0.19399,0.097 0.26674,0.1455 l -0.33949,0.96997 q -0.10912,-0.0727 -0.31524,-0.15762 -0.20612,-0.0849 -0.47286,-0.16975 -0.25461,-0.0849 -0.56986,-0.13337 -0.30311,-0.0606 -0.61835,-0.0606 -0.66685,0 -1.20034,0.23037 -0.53348,0.23037 -0.90934,0.66685 -0.37587,0.43649 -0.58199,1.06697 -0.19399,0.61835 -0.19399,1.39433 0,0.75173 0.16974,1.37008 0.18187,0.61836 0.53349,1.06697 0.35161,0.43648 0.87297,0.67898 0.53348,0.24249 1.23671,0.24249 0.81235,0 1.34583,-0.16975 0.53349,-0.16974 0.80023,-0.30311 l 0.30311,0.96997 q -0.0849,0.0606 -0.30311,0.15762 -0.21824,0.0849 -0.54561,0.16974 -0.32736,0.0849 -0.76385,0.1455 -0.43649,0.0606 -0.94572,0.0606 z"
         style="font-style:normal;font-variant:normal;font-weight:normal;font-stretch:normal;font-size:12.12461948px;font-family:Ubuntu;-inkscape-font-specification:'Ubuntu, Normal';font-variant-ligatures:normal;font-variant-caps:normal;font-variant-numeric:normal;font-feature-settings:normal;text-align:start;writing-mode:lr-tb;text-anchor:start;fill:#000000;fill-opacity:0.99822807;stroke-width:0.25454661"
         id="path892-4"
         inkscape:connector-curvature="0" />
      <path
         d="m 186.90038,172.51285 q 0,0.75173 -0.21824,1.35796 -0.21824,0.60623 -0.61836,1.04272 -0.38798,0.43648 -0.93359,0.67897 -0.54561,0.23037 -1.18821,0.23037 -0.64261,0 -1.18822,-0.23037 -0.54561,-0.24249 -0.94572,-0.67897 -0.38799,-0.43649 -0.60623,-1.04272 -0.21824,-0.60623 -0.21824,-1.35796 0,-0.7396 0.21824,-1.34583 0.21824,-0.61836 0.60623,-1.05484 0.40011,-0.43649 0.94572,-0.66686 0.54561,-0.24249 1.18822,-0.24249 0.6426,0 1.18821,0.24249 0.54561,0.23037 0.93359,0.66686 0.40012,0.43648 0.61836,1.05484 0.21824,0.60623 0.21824,1.34583 z m -1.17609,0 q 0,-1.06696 -0.48498,-1.68532 -0.47286,-0.63048 -1.29733,-0.63048 -0.82448,0 -1.30946,0.63048 -0.47286,0.61836 -0.47286,1.68532 0,1.06697 0.47286,1.69745 0.48498,0.61835 1.30946,0.61835 0.82447,0 1.29733,-0.61835 0.48498,-0.63048 0.48498,-1.69745 z"
         style="font-style:normal;font-variant:normal;font-weight:normal;font-stretch:normal;font-size:12.12461948px;font-family:Ubuntu;-inkscape-font-specification:'Ubuntu, Normal';font-variant-ligatures:normal;font-variant-caps:normal;font-variant-numeric:normal;font-feature-settings:normal;text-align:start;writing-mode:lr-tb;text-anchor:start;fill:#000000;fill-opacity:0.99822807;stroke-width:0.25454661"
         id="path894-6"
         inkscape:connector-curvature="0" />
      <path
         d="m 188.48869,169.54232 q 0.38798,-0.097 1.03059,-0.20612 0.6426,-0.10912 1.4792,-0.10912 0.75173,0 1.24884,0.21824 0.49711,0.20612 0.7881,0.59411 0.30311,0.37586 0.42436,0.90935 0.12125,0.53348 0.12125,1.17608 v 3.54039 h -1.12759 v -3.29789 q 0,-0.58199 -0.0849,-0.99422 -0.0727,-0.41224 -0.25461,-0.66686 -0.18187,-0.25461 -0.48499,-0.36374 -0.30311,-0.12124 -0.75172,-0.12124 -0.18187,0 -0.37587,0.0121 -0.19399,0.0121 -0.37586,0.0364 -0.16974,0.0121 -0.31524,0.0364 -0.13337,0.0242 -0.19399,0.0364 v 5.32271 h -1.12759 z"
         style="font-style:normal;font-variant:normal;font-weight:normal;font-stretch:normal;font-size:12.12461948px;font-family:Ubuntu;-inkscape-font-specification:'Ubuntu, Normal';font-variant-ligatures:normal;font-variant-caps:normal;font-variant-numeric:normal;font-feature-settings:normal;text-align:start;writing-mode:lr-tb;text-anchor:start;fill:#000000;fill-opacity:0.99822807;stroke-width:0.25454661"
         id="path896-9"
         inkscape:connector-curvature="0" />
      <path
         d="m 196.91529,174.8529 q 0.6911,0 1.01847,-0.18187 0.33949,-0.18187 0.33949,-0.58198 0,-0.41223 -0.32737,-0.65473 -0.32736,-0.24249 -1.07909,-0.54561 -0.36374,-0.14549 -0.70323,-0.29099 -0.32736,-0.15762 -0.56985,-0.36373 -0.2425,-0.20612 -0.38799,-0.49711 -0.1455,-0.29099 -0.1455,-0.71536 0,-0.8366 0.61836,-1.32158 0.61835,-0.49711 1.68532,-0.49711 0.26674,0 0.53348,0.0364 0.26675,0.0242 0.49711,0.0727 0.23037,0.0364 0.40012,0.0849 0.18186,0.0485 0.27886,0.0849 l -0.20612,0.96997 q -0.18187,-0.097 -0.56985,-0.194 -0.38799,-0.10912 -0.9336,-0.10912 -0.47286,0 -0.82447,0.19399 -0.35162,0.18187 -0.35162,0.58199 0,0.20611 0.0727,0.36374 0.0849,0.15762 0.24249,0.29099 0.16975,0.12124 0.41224,0.23036 0.24249,0.10913 0.58198,0.23037 0.44861,0.16975 0.80023,0.33949 0.35161,0.15762 0.5941,0.37586 0.25462,0.21825 0.38799,0.53349 0.13337,0.30311 0.13337,0.75172 0,0.87298 -0.65473,1.32159 -0.6426,0.44861 -1.84294,0.44861 -0.8366,0 -1.30946,-0.1455 -0.47286,-0.13337 -0.6426,-0.20612 l 0.20611,-0.96997 q 0.194,0.0728 0.61836,0.21825 0.42436,0.14549 1.12759,0.14549 z"
         style="font-style:normal;font-variant:normal;font-weight:normal;font-stretch:normal;font-size:12.12461948px;font-family:Ubuntu;-inkscape-font-specification:'Ubuntu, Normal';font-variant-ligatures:normal;font-variant-caps:normal;font-variant-numeric:normal;font-feature-settings:normal;text-align:start;writing-mode:lr-tb;text-anchor:start;fill:#000000;fill-opacity:0.99822807;stroke-width:0.25454661"
         id="path898-2"
         inkscape:connector-curvature="0" />
      <path
         d="m 201.91062,169.36045 h 2.38855 v 0.94572 h -2.38855 v 2.90991 q 0,0.47286 0.0728,0.7881 0.0727,0.30312 0.21824,0.48498 0.1455,0.16975 0.36374,0.2425 0.21824,0.0727 0.50924,0.0727 0.50923,0 0.81235,-0.10912 0.31524,-0.12124 0.43648,-0.16974 l 0.21824,0.93359 q -0.16974,0.0849 -0.5941,0.20612 -0.42436,0.13337 -0.96997,0.13337 -0.64261,0 -1.06697,-0.15762 -0.41223,-0.16974 -0.66685,-0.49711 -0.25462,-0.32736 -0.36374,-0.80022 -0.097,-0.48499 -0.097,-1.11547 v -5.62582 l 1.12759,-0.19399 z"
         style="font-style:normal;font-variant:normal;font-weight:normal;font-stretch:normal;font-size:12.12461948px;font-family:Ubuntu;-inkscape-font-specification:'Ubuntu, Normal';font-variant-ligatures:normal;font-variant-caps:normal;font-variant-numeric:normal;font-feature-settings:normal;text-align:start;writing-mode:lr-tb;text-anchor:start;fill:#000000;fill-opacity:0.99822807;stroke-width:0.25454661"
         id="path900-2"
         inkscape:connector-curvature="0" />
      <path
         d="m 208.05779,169.22708 q 0.14549,0 0.32736,0.0242 0.19399,0.0121 0.37586,0.0485 0.18187,0.0243 0.32737,0.0606 0.15762,0.0243 0.23037,0.0485 l -0.194,0.98209 q -0.13337,-0.0485 -0.44861,-0.10912 -0.30311,-0.0728 -0.7881,-0.0728 -0.31524,0 -0.63048,0.0728 -0.30311,0.0606 -0.40011,0.0849 v 5.29846 h -1.12759 v -6.03806 q 0.40011,-0.14549 0.99422,-0.26674 0.5941,-0.13337 1.33371,-0.13337 z"
         style="font-style:normal;font-variant:normal;font-weight:normal;font-stretch:normal;font-size:12.12461948px;font-family:Ubuntu;-inkscape-font-specification:'Ubuntu, Normal';font-variant-ligatures:normal;font-variant-caps:normal;font-variant-numeric:normal;font-feature-settings:normal;text-align:start;writing-mode:lr-tb;text-anchor:start;fill:#000000;fill-opacity:0.99822807;stroke-width:0.25454661"
         id="path902-47"
         inkscape:connector-curvature="0" />
      <path
         d="m 215.42955,175.48338 q -0.38799,0.097 -1.03059,0.20612 -0.63048,0.10912 -1.46708,0.10912 -0.72748,0 -1.22459,-0.20612 -0.49711,-0.21824 -0.80022,-0.60623 -0.30312,-0.38798 -0.43649,-0.90934 -0.13337,-0.53349 -0.13337,-1.17609 v -3.54039 h 1.12759 v 3.2979 q 0,1.15184 0.36374,1.64895 0.36374,0.4971 1.22458,0.4971 0.18187,0 0.37587,-0.0121 0.19399,-0.0121 0.36374,-0.0242 0.16974,-0.0243 0.30311,-0.0364 0.1455,-0.0242 0.20612,-0.0485 v -5.32271 h 1.12759 z"
         style="font-style:normal;font-variant:normal;font-weight:normal;font-stretch:normal;font-size:12.12461948px;font-family:Ubuntu;-inkscape-font-specification:'Ubuntu, Normal';font-variant-ligatures:normal;font-variant-caps:normal;font-variant-numeric:normal;font-feature-settings:normal;text-align:start;writing-mode:lr-tb;text-anchor:start;fill:#000000;fill-opacity:0.99822807;stroke-width:0.25454661"
         id="path904-7"
         inkscape:connector-curvature="0" />
      <path
         d="m 220.10965,175.81075 q -0.76385,0 -1.34584,-0.24249 -0.56985,-0.2425 -0.96997,-0.67898 -0.38798,-0.43649 -0.58198,-1.0306 -0.19399,-0.60623 -0.19399,-1.3337 0,-0.72748 0.20612,-1.33371 0.21824,-0.60623 0.60623,-1.04272 0.38799,-0.44861 0.94572,-0.6911 0.56986,-0.25462 1.26096,-0.25462 0.42436,0 0.84872,0.0727 0.42436,0.0728 0.81235,0.23037 l -0.25462,0.95784 q -0.25461,-0.12125 -0.5941,-0.19399 -0.32737,-0.0728 -0.70323,-0.0728 -0.94572,0 -1.45495,0.59411 -0.49711,0.5941 -0.49711,1.73382 0,0.50923 0.10912,0.93359 0.12124,0.42436 0.36374,0.72748 0.25461,0.30311 0.6426,0.47286 0.38799,0.15762 0.94572,0.15762 0.44861,0 0.81235,-0.0849 0.36374,-0.0849 0.56986,-0.18187 l 0.15762,0.94572 q -0.097,0.0606 -0.27887,0.12124 -0.18187,0.0485 -0.41223,0.0849 -0.23037,0.0485 -0.49711,0.0727 -0.25462,0.0364 -0.49711,0.0364 z"
         style="font-style:normal;font-variant:normal;font-weight:normal;font-stretch:normal;font-size:12.12461948px;font-family:Ubuntu;-inkscape-font-specification:'Ubuntu, Normal';font-variant-ligatures:normal;font-variant-caps:normal;font-variant-numeric:normal;font-feature-settings:normal;text-align:start;writing-mode:lr-tb;text-anchor:start;fill:#000000;fill-opacity:0.99822807;stroke-width:0.25454661"
         id="path906-5"
         inkscape:connector-curvature="0" />
      <path
         d="m 224.06225,169.36045 h 2.38855 v 0.94572 h -2.38855 v 2.90991 q 0,0.47286 0.0727,0.7881 0.0728,0.30312 0.21824,0.48498 0.1455,0.16975 0.36374,0.2425 0.21825,0.0727 0.50924,0.0727 0.50923,0 0.81235,-0.10912 0.31524,-0.12124 0.43648,-0.16974 l 0.21825,0.93359 q -0.16975,0.0849 -0.59411,0.20612 -0.42436,0.13337 -0.96997,0.13337 -0.64261,0 -1.06697,-0.15762 -0.41223,-0.16974 -0.66685,-0.49711 -0.25462,-0.32736 -0.36374,-0.80022 -0.097,-0.48499 -0.097,-1.11547 v -5.62582 l 1.12759,-0.19399 z"
         style="font-style:normal;font-variant:normal;font-weight:normal;font-stretch:normal;font-size:12.12461948px;font-family:Ubuntu;-inkscape-font-specification:'Ubuntu, Normal';font-variant-ligatures:normal;font-variant-caps:normal;font-variant-numeric:normal;font-feature-settings:normal;text-align:start;writing-mode:lr-tb;text-anchor:start;fill:#000000;fill-opacity:0.99822807;stroke-width:0.25454661"
         id="path908-4"
         inkscape:connector-curvature="0" />
      <path
         d="m 229.00908,175.66525 h -1.12759 v -6.3048 h 1.12759 z m -0.56986,-7.44451 q -0.30312,0 -0.52136,-0.194 -0.20612,-0.20612 -0.20612,-0.54561 0,-0.33948 0.20612,-0.53348 0.21824,-0.20612 0.52136,-0.20612 0.30312,0 0.50923,0.20612 0.21825,0.194 0.21825,0.53348 0,0.33949 -0.21825,0.54561 -0.20611,0.194 -0.50923,0.194 z"
         style="font-style:normal;font-variant:normal;font-weight:normal;font-stretch:normal;font-size:12.12461948px;font-family:Ubuntu;-inkscape-font-specification:'Ubuntu, Normal';font-variant-ligatures:normal;font-variant-caps:normal;font-variant-numeric:normal;font-feature-settings:normal;text-align:start;writing-mode:lr-tb;text-anchor:start;fill:#000000;fill-opacity:0.99822807;stroke-width:0.25454661"
         id="path910-8"
         inkscape:connector-curvature="0" />
      <path
         d="m 236.5142,172.51285 q 0,0.75173 -0.21825,1.35796 -0.21824,0.60623 -0.61835,1.04272 -0.38799,0.43648 -0.9336,0.67897 -0.54561,0.23037 -1.18821,0.23037 -0.64261,0 -1.18821,-0.23037 -0.54561,-0.24249 -0.94572,-0.67897 -0.38799,-0.43649 -0.60623,-1.04272 -0.21825,-0.60623 -0.21825,-1.35796 0,-0.7396 0.21825,-1.34583 0.21824,-0.61836 0.60623,-1.05484 0.40011,-0.43649 0.94572,-0.66686 0.5456,-0.24249 1.18821,-0.24249 0.6426,0 1.18821,0.24249 0.54561,0.23037 0.9336,0.66686 0.40011,0.43648 0.61835,1.05484 0.21825,0.60623 0.21825,1.34583 z m -1.17609,0 q 0,-1.06696 -0.48499,-1.68532 -0.47286,-0.63048 -1.29733,-0.63048 -0.82447,0 -1.30946,0.63048 -0.47286,0.61836 -0.47286,1.68532 0,1.06697 0.47286,1.69745 0.48499,0.61835 1.30946,0.61835 0.82447,0 1.29733,-0.61835 0.48499,-0.63048 0.48499,-1.69745 z"
         style="font-style:normal;font-variant:normal;font-weight:normal;font-stretch:normal;font-size:12.12461948px;font-family:Ubuntu;-inkscape-font-specification:'Ubuntu, Normal';font-variant-ligatures:normal;font-variant-caps:normal;font-variant-numeric:normal;font-feature-settings:normal;text-align:start;writing-mode:lr-tb;text-anchor:start;fill:#000000;fill-opacity:0.99822807;stroke-width:0.25454661"
         id="path912-1"
         inkscape:connector-curvature="0" />
      <path
         d="m 238.1025,169.54232 q 0.38799,-0.097 1.03059,-0.20612 0.64261,-0.10912 1.47921,-0.10912 0.75172,0 1.24883,0.21824 0.49711,0.20612 0.7881,0.59411 0.30312,0.37586 0.42436,0.90935 0.12125,0.53348 0.12125,1.17608 v 3.54039 h -1.12759 v -3.29789 q 0,-0.58199 -0.0849,-0.99422 -0.0728,-0.41224 -0.25462,-0.66686 -0.18187,-0.25461 -0.48498,-0.36374 -0.30312,-0.12124 -0.75173,-0.12124 -0.18187,0 -0.37586,0.0121 -0.194,0.0121 -0.37587,0.0364 -0.16974,0.0121 -0.31524,0.0364 -0.13337,0.0242 -0.19399,0.0364 v 5.32271 h -1.12759 z"
         style="font-style:normal;font-variant:normal;font-weight:normal;font-stretch:normal;font-size:12.12461948px;font-family:Ubuntu;-inkscape-font-specification:'Ubuntu, Normal';font-variant-ligatures:normal;font-variant-caps:normal;font-variant-numeric:normal;font-feature-settings:normal;text-align:start;writing-mode:lr-tb;text-anchor:start;fill:#000000;fill-opacity:0.99822807;stroke-width:0.25454661"
         id="path914-2"
         inkscape:connector-curvature="0" />
    </g>
    <path
       style="color:#000000;font-style:normal;font-variant:normal;font-weight:normal;font-stretch:normal;font-size:medium;line-height:normal;font-family:sans-serif;font-variant-ligatures:normal;font-variant-position:normal;font-variant-caps:normal;font-variant-numeric:normal;font-variant-alternates:normal;font-feature-settings:normal;text-indent:0;text-align:start;text-decoration:none;text-decoration-line:none;text-decoration-style:solid;text-decoration-color:#000000;letter-spacing:normal;word-spacing:normal;text-transform:none;writing-mode:lr-tb;direction:ltr;text-orientation:mixed;dominant-baseline:auto;baseline-shift:baseline;text-anchor:start;white-space:normal;shape-padding:0;clip-rule:nonzero;display:inline;overflow:visible;visibility:visible;opacity:1;isolation:auto;mix-blend-mode:normal;color-interpolation:sRGB;color-interpolation-filters:linearRGB;solid-color:#000000;solid-opacity:1;vector-effect:none;fill:#000000;fill-opacity:0.99822807;fill-rule:nonzero;stroke:none;stroke-width:1.06614697;stroke-linecap:square;stroke-linejoin:miter;stroke-miterlimit:4;stroke-dasharray:none;stroke-dashoffset:0;stroke-opacity:1;color-rendering:auto;image-rendering:auto;shape-rendering:auto;text-rendering:auto;enable-background:accumulate"
       d="m 126.77768,132.15621 v 25.19398 0.53308 h 1.06614 v -0.53308 -23.59892 l 0.18117,0.075 0.46018,0.19157 0.45813,0.1895 0.46018,0.19156 0.4602,0.1895 0.46019,0.19158 0.24363,0.0999 v 0.84126 l -5.3e-4,1.3038 1.06667,0.42661 v -0.53307 -1.19734 -1.55341 l -0.90373,-0.37482 -0.4581,-0.18949 -0.4602,-0.18949 -0.46019,-0.19157 -0.45812,-0.1895 -0.46018,-0.19157 -0.4602,-0.18949 z m 6.14728,2.5053 2.6e-4,1.15394 c 0.18513,0.077 0.37588,0.15687 0.54273,0.22669 l 0.46019,0.18948 0.45811,0.18949 0.4602,0.19158 0.46018,0.18949 0.13119,0.0542 v 0.84126 1.30376 l 1.06615,0.42665 v -0.53308 -1.19733 -1.55341 l -0.78921,-0.32692 -0.46018,-0.1895 -0.4602,-0.19157 -0.45811,-0.18949 -0.4602,-0.18949 -0.46018,-0.19158 z m 4.66621,1.97585 -0.001,1.15398 c 0,0 0.38276,0.15801 0.54465,0.2246 l 0.46021,0.1895 0.4581,0.19156 0.46018,0.1895 0.0708,0.0291 c -0.12681,0.71408 -2.19684,12.42227 -2.19684,18.73463 v 0.53308 h 1.06614 v -0.53308 c 0,-6.25444 2.24891,-18.972 2.24891,-18.972 l 0.075,-0.42064 -0.85582,-0.35607 -0.46019,-0.18949 -0.46019,-0.19158 -0.45812,-0.18949 -0.46019,-0.18949 z"
       id="path815-5-0-46-6"
       inkscape:connector-curvature="0"
       sodipodi:nodetypes="cccccccccccccccccccccccccccccccccccccccccccccccccccccccsccscccccccc" />
    <path
       style="color:#000000;font-style:normal;font-variant:normal;font-weight:normal;font-stretch:normal;font-size:medium;line-height:normal;font-family:sans-serif;font-variant-ligatures:normal;font-variant-position:normal;font-variant-caps:normal;font-variant-numeric:normal;font-variant-alternates:normal;font-feature-settings:normal;text-indent:0;text-align:start;text-decoration:none;text-decoration-line:none;text-decoration-style:solid;text-decoration-color:#000000;letter-spacing:normal;word-spacing:normal;text-transform:none;writing-mode:lr-tb;direction:ltr;text-orientation:mixed;dominant-baseline:auto;baseline-shift:baseline;text-anchor:start;white-space:normal;shape-padding:0;clip-rule:nonzero;display:inline;overflow:visible;visibility:visible;opacity:1;isolation:auto;mix-blend-mode:normal;color-interpolation:sRGB;color-interpolation-filters:linearRGB;solid-color:#000000;solid-opacity:1;vector-effect:none;fill:#000000;fill-opacity:0.99822807;fill-rule:nonzero;stroke:none;stroke-width:1.06614697;stroke-linecap:square;stroke-linejoin:miter;stroke-miterlimit:4;stroke-dasharray:none;stroke-dashoffset:0;stroke-opacity:1;color-rendering:auto;image-rendering:auto;shape-rendering:auto;text-rendering:auto;enable-background:accumulate"
       d="m 116.65851,136.63699 10e-4,1.15399 c 0,0 -0.38276,0.158 -0.54467,0.2246 l -0.46018,0.18949 -0.45811,0.19157 -0.46018,0.1895 -0.0708,0.0291 c 0.12681,0.71407 2.19684,12.42227 2.19684,18.73463 v 0.53308 h -1.06615 v -0.53308 c 0,-6.25444 -2.24891,-18.97201 -2.24891,-18.97201 l -0.075,-0.42063 0.85583,-0.35608 0.4602,-0.18948 0.46018,-0.19158 0.45812,-0.18949 0.46019,-0.18949 z"
       id="path815-5-0-46-6-7"
       inkscape:connector-curvature="0"
       sodipodi:nodetypes="cccccccsccscccccccc" />
    <path
       style="fill:#000000;fill-opacity:0.99822807;stroke:none;stroke-width:0.45887014;stroke-linecap:round;stroke-linejoin:round;stroke-miterlimit:4;stroke-dasharray:none;stroke-opacity:1"
       d="m 127.26639,128.41821 c -2.39786,-1.34219 -4.49436,-0.0479 -6.37062,0.66688 -2.20282,0.83912 -4.27773,1.22215 -6.17838,0.63497 0.72096,0.17935 2.58707,-1.2095 2.58707,-1.2095 0,0 -0.64355,-0.24374 -2.74836,-1.85428 2.46902,0.45048 5.25459,0.96912 7.36607,-0.30975 2.1439,-1.32433 2.83969,-1.58397 4.64226,-1.49846 z"
       id="path975-3-0-6-5"
       inkscape:connector-curvature="0"
       sodipodi:nodetypes="cscccccc"
       inkscape:export-xdpi="250.08351"
       inkscape:export-ydpi="250.08351" />
  </g>
</svg>
