<?xml version="1.0" encoding="UTF-8" standalone="no"?>
<!-- Created with Inkscape (http://www.inkscape.org/) -->

<svg
   xmlns:dc="http://purl.org/dc/elements/1.1/"
   xmlns:cc="http://creativecommons.org/ns#"
   xmlns:rdf="http://www.w3.org/1999/02/22-rdf-syntax-ns#"
   xmlns:svg="http://www.w3.org/2000/svg"
   xmlns="http://www.w3.org/2000/svg"
   xmlns:sodipodi="http://sodipodi.sourceforge.net/DTD/sodipodi-0.dtd"
   xmlns:inkscape="http://www.inkscape.org/namespaces/inkscape"
   width="34mm"
   height="34mm"
   viewBox="0 0 34 34"
   version="1.1"
   id="svg864"
   inkscape:version="0.92.5 (2060ec1f9f, 2020-04-08)"
   sodipodi:docname="favicon.svg">
  <defs
     id="defs858" />
  <sodipodi:namedview
     id="base"
     pagecolor="#ffffff"
     bordercolor="#666666"
     borderopacity="1.0"
     inkscape:pageopacity="0.0"
     inkscape:pageshadow="2"
     inkscape:zoom="1.979899"
     inkscape:cx="-57.591889"
     inkscape:cy="1.2508359"
     inkscape:document-units="mm"
     inkscape:current-layer="layer1"
     showgrid="false"
     inkscape:window-width="3000"
     inkscape:window-height="1872"
     inkscape:window-x="0"
     inkscape:window-y="54"
     inkscape:window-maximized="1" />
  <metadata
     id="metadata861">
    <rdf:RDF>
      <cc:Work
         rdf:about="">
        <dc:format>image/svg+xml</dc:format>
        <dc:type
           rdf:resource="http://purl.org/dc/dcmitype/StillImage" />
        <dc:title></dc:title>
      </cc:Work>
    </rdf:RDF>
  </metadata>
  <g
     inkscape:label="Layer 1"
     inkscape:groupmode="layer"
     id="layer1"
     transform="translate(-92.180836,-131.35832)">
    <path
       style="color:#000000;font-style:normal;font-variant:normal;font-weight:normal;font-stretch:normal;font-size:medium;line-height:normal;font-family:sans-serif;font-variant-ligatures:normal;font-variant-position:normal;font-variant-caps:normal;font-variant-numeric:normal;font-variant-alternates:normal;font-feature-settings:normal;text-indent:0;text-align:start;text-decoration:none;text-decoration-line:none;text-decoration-style:solid;text-decoration-color:#000000;letter-spacing:normal;word-spacing:normal;text-transform:none;writing-mode:lr-tb;direction:ltr;text-orientation:mixed;dominant-baseline:auto;baseline-shift:baseline;text-anchor:start;white-space:normal;shape-padding:0;clip-rule:nonzero;display:inline;overflow:visible;visibility:visible;opacity:1;isolation:auto;mix-blend-mode:normal;color-interpolation:sRGB;color-interpolation-filters:linearRGB;solid-color:#000000;solid-opacity:1;vector-effect:none;fill:#fb555e;fill-opacity:1;fill-rule:nonzero;stroke:none;stroke-width:1.06614697;stroke-linecap:square;stroke-linejoin:miter;stroke-miterlimit:4;stroke-dasharray:none;stroke-dashoffset:0;stroke-opacity:1;color-rendering:auto;image-rendering:auto;shape-rendering:auto;text-rendering:auto;enable-background:accumulate"
       d="m 108.83369,139.15621 v 25.19398 0.53308 h 1.06614 v -0.53308 -23.59892 l 0.18117,0.075 0.46018,0.19157 0.45813,0.1895 0.46018,0.19156 0.4602,0.1895 0.46019,0.19158 0.24363,0.0999 v 0.84126 l -5.6e-4,1.3038 1.06667,0.42661 v -0.53307 -1.19734 -1.5534 l -0.90373,-0.37483 -0.4581,-0.18949 -0.4602,-0.18949 -0.46019,-0.19157 -0.45812,-0.1895 -0.46018,-0.19157 -0.4602,-0.18949 z m 6.14728,2.5053 2.6e-4,1.15394 c 0.18513,0.077 0.37588,0.15687 0.54273,0.22669 l 0.46019,0.18948 0.45811,0.18949 0.4602,0.19158 0.46018,0.18949 0.13119,0.0542 v 0.84126 1.30376 l 1.06615,0.42665 v -0.53308 -1.19733 -1.55341 l -0.78921,-0.32692 -0.46018,-0.1895 -0.4602,-0.19157 -0.45811,-0.18949 -0.4602,-0.18949 -0.46018,-0.19158 z m 4.66621,1.97585 -0.001,1.15398 c 0,0 0.38276,0.15801 0.54465,0.2246 l 0.46021,0.1895 0.4581,0.19156 0.46018,0.1895 0.0708,0.0291 c -0.12681,0.71408 -2.19684,12.42227 -2.19684,18.73463 v 0.53308 h 1.06614 v -0.53308 c 0,-6.25444 2.24891,-18.972 2.24891,-18.972 l 0.075,-0.42064 -0.85582,-0.35607 -0.46019,-0.18949 -0.46019,-0.19158 -0.45812,-0.18949 -0.46019,-0.18949 z"
       id="path815-5-0-46-6"
       inkscape:connector-curvature="0"
       sodipodi:nodetypes="cccccccccccccccccccccccccccccccccccccccccccccccccccccccsccscccccccc" />
    <path
       style="color:#000000;font-style:normal;font-variant:normal;font-weight:normal;font-stretch:normal;font-size:medium;line-height:normal;font-family:sans-serif;font-variant-ligatures:normal;font-variant-position:normal;font-variant-caps:normal;font-variant-numeric:normal;font-variant-alternates:normal;font-feature-settings:normal;text-indent:0;text-align:start;text-decoration:none;text-decoration-line:none;text-decoration-style:solid;text-decoration-color:#000000;letter-spacing:normal;word-spacing:normal;text-transform:none;writing-mode:lr-tb;direction:ltr;text-orientation:mixed;dominant-baseline:auto;baseline-shift:baseline;text-anchor:start;white-space:normal;shape-padding:0;clip-rule:nonzero;display:inline;overflow:visible;visibility:visible;opacity:1;isolation:auto;mix-blend-mode:normal;color-interpolation:sRGB;color-interpolation-filters:linearRGB;solid-color:#000000;solid-opacity:1;vector-effect:none;fill:#fb555e;fill-opacity:1;fill-rule:nonzero;stroke:none;stroke-width:1.06614697;stroke-linecap:square;stroke-linejoin:miter;stroke-miterlimit:4;stroke-dasharray:none;stroke-dashoffset:0;stroke-opacity:1;color-rendering:auto;image-rendering:auto;shape-rendering:auto;text-rendering:auto;enable-background:accumulate"
       d="m 98.714514,143.63699 0.001,1.15399 c 0,0 -0.38276,0.158 -0.544669,0.2246 l -0.46018,0.18949 -0.45811,0.19157 -0.46018,0.1895 -0.0708,0.0291 c 0.126804,0.71407 2.196834,12.42227 2.196834,18.73463 v 0.53308 h -1.066155 v -0.53308 c 0,-6.25444 -2.24891,-18.97201 -2.24891,-18.97201 l -0.075,-0.42063 0.85583,-0.35608 0.4602,-0.18948 0.46018,-0.19158 0.45812,-0.18949 0.46019,-0.18949 z"
       id="path815-5-0-46-6-7"
       inkscape:connector-curvature="0"
       sodipodi:nodetypes="cccccccsccscccccccc" />
    <path
       style="fill:#fb555e;fill-opacity:1;stroke:none;stroke-width:0.45887014;stroke-linecap:round;stroke-linejoin:round;stroke-miterlimit:4;stroke-dasharray:none;stroke-opacity:1"
       d="m 109.3224,135.41821 c -2.39786,-1.34219 -4.49436,-0.0479 -6.37063,0.66688 -2.20282,0.83912 -4.277726,1.22215 -6.178376,0.63497 0.72096,0.17935 2.587071,-1.2095 2.587071,-1.2095 0,0 -0.64355,-0.24374 -2.748361,-1.85428 2.46902,0.45048 5.254586,0.96912 7.366076,-0.30975 2.1439,-1.32433 2.83969,-1.58397 4.64226,-1.49846 z"
       id="path975-3-0-6-5"
       inkscape:connector-curvature="0"
       sodipodi:nodetypes="cscccccc"
       inkscape:export-xdpi="250.08351"
       inkscape:export-ydpi="250.08351" />
  </g>
</svg>
